:SAMPLES-PER-SECOND 30
:FULLY-SPECIFIED
:DEGREES
569
root  -1.45489 38.1479 2.07542 45.0076 -86.8478 -50.8068
RightUpLeg  1.92822 -10.3392 -22.1901
RightLeg  10.301 6.39054 -0.341787
RightFoot  7.89406 -4.63898 27.2198
RightToes  -5.28226e-011 1.30204e-014 -6.03759e-014
Spine  7.53118 0.536227 1.40796
Spine1  4.22707 1.30662 -4.344
HEad  -17.8339 -0.233883 -1.29832
LeftShoulder1  2.01179 -5.12155 -16.6236
LeftArm  13.1928 21.2665 -38.0294
LeftForeArm  39.4527 -63.0824 -18.3862
LeftHand  -1.25169 -4.82423 14.4618
RightShoulder  1.77769 3.15738 20.357
RightArm  5.6365 -23.8256 46.6537
RightForeArm  27.5634 54.4058 13.4064
RightHand  -1.42416 2.29301 -21.5118
LeftUpLeg  5.06129 10.5674 24.0561
LeftLeg  10.8802 -6.71279 2.89082
LeftFoot  -7.73274 0.748015 -22.0389
LeftToes  -2.42178e-010 -1.66495e-011 -2.88221e-011
570
root  -1.34919 38.1448 1.57862 45.0964 -86.2027 -50.0931
RightUpLeg  2.24094 -12.0079 -21.0011
RightLeg  8.84651 7.19046 -0.329136
RightFoot  5.93426 -4.07167 26.6246
RightToes  -5.28226e-011 1.30204e-014 -6.03759e-014
Spine  7.19801 0.15546 1.5508
Spine1  3.78962 0.720544 -2.90916
HEad  -16.4677 0.63164 -1.93152
LeftShoulder1  2.00174 -4.98681 -16.8968
LeftArm  9.73536 22.6927 -39.0344
LeftForeArm  32.9553 -57.9941 -15.0952
LeftHand  -1.36011 -4.95321 15.4875
RightShoulder  1.7737 3.15469 20.3011
RightArm  6.66651 -23.0801 46.0997
RightForeArm  22.7158 48.1847 10.8386
RightHand  -1.49132 2.29191 -22.4992
LeftUpLeg  4.60486 11.9794 25.1369
LeftLeg  8.91534 -8.08238 3.3131
LeftFoot  -6.1817 1.07057 -22.6753
LeftToes  -2.42178e-010 -1.66495e-011 -2.88221e-011
571
root  -1.21924 38.1553 1.22013 44.5865 -85.6814 -48.9141
RightUpLeg  2.54928 -12.8632 -20.0326
RightLeg  7.25333 6.59418 -0.362351
RightFoot  4.99561 -3.6814 25.5006
RightToes  -5.28226e-011 1.30204e-014 -6.03759e-014
Spine  6.7331 -0.12674 1.73092
Spine1  3.8372 0.247749 -1.64588
HEad  -15.0939 1.30286 -2.34349
LeftShoulder1  2.03915 -5.08 -17.0927
LeftArm  6.58031 23.4473 -40.7485
LeftForeArm  26.6669 -52.5776 -12.5458
LeftHand  -1.46224 -4.97307 16.5844
RightShoulder  1.75812 3.07688 20.3861
RightArm  7.83703 -22.0855 45.1806
RightForeArm  18.1879 42.7801 9.13846
RightHand  -1.44528 2.11778 -22.3026
LeftUpLeg  4.25662 13.5774 25.917
LeftLeg  7.00108 -9.51008 3.66675
LeftFoot  -4.55175 1.42763 -23.3176
LeftToes  -2.42178e-010 -1.66495e-011 -2.88221e-011
572
root  -1.05622 38.1791 1.0026 42.6984 -85.4016 -46.4012
RightUpLeg  2.73868 -13.2166 -19.482
RightLeg  5.52836 5.81405 -0.362403
RightFoot  4.88201 -3.46961 24.2457
RightToes  -5.28226e-011 1.30204e-014 -6.03759e-014
Spine  6.41061 -0.333201 1.92383
Spine1  3.66762 -0.101654 -0.745124
HEad  -13.4466 1.75612 -2.48336
LeftShoulder1  2.0965 -5.2394 -17.3354
LeftArm  4.50614 23.5442 -42.5218
LeftForeArm  20.7566 -46.7227 -10.4052
LeftHand  -1.55365 -4.8341 17.8158
RightShoulder  1.72896 2.951 20.4615
RightArm  9.13409 -21.12 44.3021
RightForeArm  13.4479 37.7575 7.85715
RightHand  -1.27845 1.59771 -21.2085
LeftUpLeg  3.98365 14.9356 26.2569
LeftLeg  5.16777 -10.5673 3.80331
LeftFoot  -3.08193 1.77229 -23.976
LeftToes  -2.42178e-010 -1.66495e-011 -2.88221e-011
573
root  -0.869025 38.1982 0.900494 38.8264 -85.3961 -41.9415
RightUpLeg  2.81384 -13.3482 -19.4148
RightLeg  3.89502 5.34404 -0.397319
RightFoot  4.81972 -3.36579 23.6316
RightToes  -5.28226e-011 1.30204e-014 -6.03759e-014
Spine  6.35969 -0.506024 1.94139
Spine1  3.00827 -0.382838 -0.0290512
HEad  -11.4094 2.07283 -2.27349
LeftShoulder1  2.13655 -5.31323 -17.6107
LeftArm  3.73896 23.3281 -43.9205
LeftForeArm  15.7509 -40.8671 -8.66336
LeftHand  -1.64613 -4.73556 19.0162
RightShoulder  1.68877 2.81713 20.3893
RightArm  10.7016 -20.3096 43.7666
RightForeArm  9.19549 32.9008 6.765
RightHand  -1.08989 0.907458 -20.0846
LeftUpLeg  3.76747 15.8219 26.2004
LeftLeg  3.56447 -11.1377 3.587
LeftFoot  -1.96236 2.05529 -24.5732
LeftToes  -2.42178e-010 -1.66495e-011 -2.88221e-011
574
root  -0.677783 38.2084 0.875337 33.2681 -85.583 -35.9178
RightUpLeg  2.9483 -13.5316 -19.7925
RightLeg  2.34468 5.15249 -0.439193
RightFoot  4.71897 -3.34674 23.643
RightToes  -5.28226e-011 1.30204e-014 -6.03759e-014
Spine  6.28846 -0.619173 1.85554
Spine1  2.55457 -0.555844 0.462462
HEad  -9.35308 2.18636 -1.74971
LeftShoulder1  2.1598 -5.3254 -17.8595
LeftArm  4.16142 22.7466 -44.8792
LeftForeArm  11.6748 -35.4009 -7.28639
LeftHand  -1.70546 -4.8074 19.5509
RightShoulder  1.65385 2.71047 20.2798
RightArm  12.5176 -19.5589 43.5674
RightForeArm  5.62787 28.3252 5.79487
RightHand  -1.00958 0.587247 -19.5969
LeftUpLeg  3.66088 16.3351 25.912
LeftLeg  2.26767 -11.4117 3.1041
LeftFoot  -1.16869 2.26328 -24.9916
LeftToes  -2.42178e-010 -1.66495e-011 -2.88221e-011
575
root  -0.488789 38.2149 0.89168 26.2552 -85.835 -28.5571
RightUpLeg  3.12609 -13.9058 -20.5267
RightLeg  0.918454 5.31694 -0.369384
RightFoot  4.80018 -3.4068 23.9359
RightToes  -5.28226e-011 1.30204e-014 -6.03759e-014
Spine  5.95444 -0.626751 1.80013
Spine1  2.78598 -0.567456 0.583864
HEad  -7.60122 1.99476 -1.09497
LeftShoulder1  2.19556 -5.36571 -18.1751
LeftArm  5.77426 21.5508 -45.4366
LeftForeArm  7.35959 -30.2875 -6.18513
LeftHand  -1.63821 -4.85165 18.7191
RightShoulder  1.64576 2.6742 20.3072
RightArm  14.1399 -18.8103 43.4704
RightForeArm  1.85277 24.2096 5.24574
RightHand  -1.01678 0.635949 -19.5778
LeftUpLeg  3.49382 16.5385 25.3928
LeftLeg  1.44184 -11.4259 2.62371
LeftFoot  -0.628547 2.40355 -25.2255
LeftToes  -2.42178e-010 -1.66495e-011 -2.88221e-011
576
root  -0.290141 38.2201 0.921126 18.6653 -86.1021 -20.6544
RightUpLeg  3.10117 -14.372 -21.3694
RightLeg  -0.154775 5.80336 -0.227822
RightFoot  4.93246 -3.52243 24.5271
RightToes  -5.28226e-011 1.30204e-014 -6.03759e-014
Spine  5.62535 -0.532212 1.8132
Spine1  3.14085 -0.428163 0.370171
HEad  -6.00448 1.55448 -0.462073
LeftShoulder1  2.24359 -5.40089 -18.6526
LeftArm  8.48801 19.9268 -45.6358
LeftForeArm  1.62919 -25.4599 -5.39827
LeftHand  -1.40762 -4.46064 16.7642
RightShoulder  1.66233 2.70417 20.4557
RightArm  12.6516 -18.1568 43.2769
RightForeArm  0.209706 20.3351 6.38493
RightHand  -0.960011 0.379116 -19.2935
LeftUpLeg  3.07381 16.4653 24.6452
LeftLeg  1.17668 -11.0943 2.32696
LeftFoot  -0.27878 2.49356 -25.3561
LeftToes  -2.42178e-010 -1.66495e-011 -2.88221e-011
577
root  -0.0776769 38.2213 0.944014 12.4839 -86.3987 -14.2346
RightUpLeg  2.75071 -14.7127 -21.9623
RightLeg  -0.662832 6.25573 -0.161116
RightFoot  4.97927 -3.64061 25.2485
RightToes  -5.28226e-011 1.30204e-014 -6.03759e-014
Spine  5.69929 -0.411843 1.96366
Spine1  3.00673 -0.218321 -0.0760782
HEad  -4.32399 1.0522 0.0846391
LeftShoulder1  2.26988 -5.34939 -19.1304
LeftArm  9.08917 18.3888 -45.5584
LeftForeArm  -2.407 -20.7438 -6.04057
LeftHand  -1.10501 -3.36275 14.8555
RightShoulder  1.67831 2.73373 20.5949
RightArm  5.77208 -17.6762 43.0798
RightForeArm  4.23316 16.2397 9.31345
RightHand  -0.791769 -0.415171 -18.4175
LeftUpLeg  2.54594 16.2738 23.9413
LeftLeg  1.28947 -10.5607 2.17635
LeftFoot  -0.0277973 2.55281 -25.3934
LeftToes  -2.42178e-010 -1.66495e-011 -2.88221e-011
578
root  0.128209 38.2225 0.953841 9.19171 -86.6099 -10.9098
RightUpLeg  2.36676 -14.8146 -22.1613
RightLeg  -0.783055 6.37695 -0.205765
RightFoot  5.14864 -3.73397 25.6174
RightToes  -5.28226e-011 1.30204e-014 -6.03759e-014
Spine  6.08334 -0.386291 2.26977
Spine1  2.70609 -0.0903059 -0.575198
HEad  -2.65193 0.663281 0.481482
LeftShoulder1  2.26426 -5.26149 -19.3372
LeftArm  1.81691 17.2816 -45.3123
LeftForeArm  1.63851 -15.5496 -9.27358
LeftHand  -0.839463 -1.86312 13.6062
RightShoulder  1.68147 2.72937 20.6604
RightArm  -1.21049 -17.3879 43.2746
RightForeArm  9.89717 12.5199 11.2479
RightHand  -0.639708 -1.12477 -17.3319
LeftUpLeg  2.20014 16.1782 23.5739
LeftLeg  1.42453 -10.2374 2.08371
LeftFoot  0.233514 2.60225 -25.3149
LeftToes  -2.42178e-010 -1.66495e-011 -2.88221e-011
579
root  0.30155 38.2294 0.952937 7.53912 -86.5117 -9.3877
RightUpLeg  2.25638 -14.7975 -22.192
RightLeg  -0.823899 6.22977 -0.280788
RightFoot  5.47967 -3.80818 25.616
RightToes  -5.28226e-011 1.30204e-014 -6.03759e-014
Spine  6.34791 -0.513817 2.41952
Spine1  2.79304 -0.192037 -0.742249
HEad  -1.21366 0.442986 0.697043
LeftShoulder1  2.25248 -5.23529 -19.2758
LeftArm  -6.61245 16.8208 -45.4375
LeftForeArm  6.82758 -10.8063 -11.2371
LeftHand  -0.647793 -0.644431 12.5759
RightShoulder  1.68342 2.72831 20.6632
RightArm  -5.94426 -17.254 43.7396
RightForeArm  14.9899 10.006 11.9971
RightHand  -0.585378 -1.28907 -16.4818
LeftUpLeg  2.02466 16.1776 23.4497
LeftLeg  1.35752 -10.3172 2.02098
LeftFoot  0.558126 2.664 -25.2245
LeftToes  -2.42178e-010 -1.66495e-011 -2.88221e-011
580
root  0.435876 38.2356 0.946499 5.08124 -86.1066 -6.99835
RightUpLeg  2.2799 -14.8368 -22.3184
RightLeg  -0.807793 5.98509 -0.313166
RightFoot  5.6639 -3.86067 25.6866
RightToes  -5.28226e-011 1.30204e-014 -6.03759e-014
Spine  6.33657 -0.710069 2.0881
Spine1  3.09524 -0.500437 -0.332551
HEad  -0.0376738 0.286396 0.832548
LeftShoulder1  2.2419 -5.2111 -19.222
LeftArm  -12.1495 16.9212 -45.848
LeftForeArm  9.48711 -7.72579 -11.6179
LeftHand  -0.538607 -0.0407618 11.5984
RightShoulder  1.68095 2.73582 20.6315
RightArm  -7.43257 -17.4019 44.1943
RightForeArm  17.3348 9.22534 12.1062
RightHand  -0.573241 -1.23258 -15.9188
LeftUpLeg  1.76793 16.1609 23.2723
LeftLeg  1.15322 -10.6004 1.96828
LeftFoot  0.89695 2.74555 -25.2873
LeftToes  -2.42178e-010 -1.66495e-011 -2.88221e-011
581
root  0.541006 38.2336 0.941793 2.23492 -85.7035 -4.06335
RightUpLeg  2.1628 -14.956 -22.528
RightLeg  -0.683284 5.7367 -0.294733
RightFoot  5.63473 -3.89271 25.9334
RightToes  -5.28226e-011 1.30204e-014 -6.03759e-014
Spine  6.23109 -0.833442 1.51372
Spine1  3.17412 -0.78847 0.315825
HEad  1.01707 0.0158925 1.04195
LeftShoulder1  2.21156 -5.06074 -19.3267
LeftArm  -14.5001 17.3061 -46.1461
LeftForeArm  9.70302 -6.31002 -11.5298
LeftHand  -0.505066 0.137203 11.228
RightShoulder  1.66706 2.68375 20.6332
RightArm  -6.13751 -17.9188 44.5741
RightForeArm  16.4953 10.0875 11.8775
RightHand  -0.551982 -1.28872 -15.5338
LeftUpLeg  1.39443 16.1101 22.9927
LeftLeg  0.975051 -10.7821 1.90545
LeftFoot  1.17002 2.83205 -25.5168
LeftToes  -2.42178e-010 -1.66495e-011 -2.88221e-011
582
root  0.625458 38.2286 0.943826 0.453613 -85.543 -2.18622
RightUpLeg  1.96603 -15.0802 -22.6878
RightLeg  -0.586153 5.60448 -0.243416
RightFoot  5.66262 -3.92252 26.083
RightToes  -5.28226e-011 1.30204e-014 -6.03759e-014
Spine  6.15198 -0.831593 1.22634
Spine1  3.13066 -0.858173 0.619822
HEad  2.08951 -0.431797 1.34541
LeftShoulder1  2.16066 -4.82295 -19.4609
LeftArm  -14.9142 17.6543 -46.2229
LeftForeArm  8.99937 -5.80428 -11.5514
LeftHand  -0.523016 0.0968519 11.535
RightShoulder  1.63501 2.54302 20.7396
RightArm  -3.63707 -18.6081 45.0138
RightForeArm  13.972 11.8427 11.2943
RightHand  -0.552719 -1.25411 -15.4268
LeftUpLeg  1.13572 16.0643 22.7799
LeftLeg  0.868022 -10.7674 1.86002
LeftFoot  1.35653 2.90158 -25.7571
LeftToes  -2.42178e-010 -1.66495e-011 -2.88221e-011
